<?xml version="1.0" encoding="UTF-8" standalone="no"?>
<!DOCTYPE svg PUBLIC "-//W3C//DTD SVG 1.1//EN" "http://www.w3.org/Graphics/SVG/1.1/DTD/svg11.dtd">
<svg version="1.1" xmlns="http://www.w3.org/2000/svg" xmlns:xlink="http://www.w3.org/1999/xlink" preserveAspectRatio="xMidYMid meet" viewBox="134.62998405103667 134.62998405103667 372.74003189792666 372.74003189792666" width="368.74" height="368.74"><defs><path d="M320 469.67L320 196.36" id="cpQak2Pfx"></path><path d="M297.38 250.95L320 469.67L342.62 250.95L320 196.36L297.38 250.95Z" id="b179o7jiP0"></path><path d="M447.97 226.73L320 469.67L192.03 226.73L320 196.36L447.97 226.73Z" id="b1HG4N3Xu2"></path><path d="M504.37 320C504.37 421.76 421.76 504.37 320 504.37C218.24 504.37 135.63 421.76 135.63 320C135.63 218.24 218.24 135.63 320 135.63C421.76 135.63 504.37 218.24 504.37 320Z" id="d4CJl4ZUjm"></path><path d="M320 469.67L447.97 227.95L320 196.36L320 469.67Z" id="dDdMveeR"></path><path d="M320 469.67L192.03 227.95L320 196.36L320 469.67Z" id="ak83M4ke5"></path><path d="M320 469.67L262.52 240.83L320 196.36L320 469.67Z" id="bWH9MNM6f"></path><path d="M320 469.67L377.48 240.83L320 196.36L320 469.67Z" id="b49Twt3O4V"></path></defs><g><g><g><use xlink:href="#cpQak2Pfx" opacity="1" fill-opacity="0" stroke="#6f5c5c" stroke-width="0" stroke-opacity="1"></use></g></g><g><use xlink:href="#b179o7jiP0" opacity="1" fill="#faa830" fill-opacity="1"></use><g><use xlink:href="#b179o7jiP0" opacity="1" fill-opacity="0" stroke="#6f5c5c" stroke-width="0" stroke-opacity="1"></use></g></g><g><use xlink:href="#b1HG4N3Xu2" opacity="1" fill="#f99f25" fill-opacity="1"></use><g><use xlink:href="#b1HG4N3Xu2" opacity="1" fill-opacity="0" stroke="#6f5c5c" stroke-width="0" stroke-opacity="1"></use></g></g><g><use xlink:href="#d4CJl4ZUjm" opacity="1" fill="#003049" fill-opacity="1"></use></g><g><use xlink:href="#dDdMveeR" opacity="1" fill="#f77f00" fill-opacity="1"></use><g><use xlink:href="#dDdMveeR" opacity="1" fill-opacity="0" stroke="#000000" stroke-width="0" stroke-opacity="1"></use></g></g><g><use xlink:href="#ak83M4ke5" opacity="1" fill="#fcbf49" fill-opacity="1"></use><g><use xlink:href="#ak83M4ke5" opacity="1" fill-opacity="0" stroke="#000000" stroke-width="0" stroke-opacity="1"></use></g></g><g><use xlink:href="#bWH9MNM6f" opacity="1" fill="#f77e00" fill-opacity="0.35"></use><g><use xlink:href="#bWH9MNM6f" opacity="1" fill-opacity="0" stroke="#6f5c5c" stroke-width="0" stroke-opacity="1"></use></g></g><g><use xlink:href="#b49Twt3O4V" opacity="1" fill="#fcbf49" fill-opacity="0.35"></use><g><use xlink:href="#b49Twt3O4V" opacity="1" fill-opacity="0" stroke="#6f5c5c" stroke-width="0" stroke-opacity="1"></use></g></g></g></svg>